<?xml version="1.0" encoding="UTF-8"?>
<svg xmlns="http://www.w3.org/2000/svg" xmlns:xlink="http://www.w3.org/1999/xlink" viewBox="0 0 96 96" width="96px" height="96px">
<g id="surface32007027">
<path style=" stroke:none;fill-rule:nonzero;fill:rgb(100%,100%,100%);fill-opacity:1;" d="M 23 12 C 16.960938 12 12 16.960938 12 23 L 12 73 C 12 79.039062 16.960938 84 23 84 L 73 84 C 79.039062 84 84 79.039062 84 73 L 84 23 C 84 16.960938 79.039062 12 73 12 Z M 23 18 L 73 18 C 75.796875 18 78 20.203125 78 23 L 78 73 C 78 75.796875 75.796875 78 73 78 L 23 78 C 20.203125 78 18 75.796875 18 73 L 18 23 C 18 20.203125 20.203125 18 23 18 Z M 31 26 C 28.238281 26 26 28.238281 26 31 C 26 33.761719 28.238281 36 31 36 C 33.761719 36 36 33.761719 36 31 C 36 28.238281 33.761719 26 31 26 Z M 28 40 C 26.894531 40 26 40.894531 26 42 L 26 68 C 26 69.105469 26.894531 70 28 70 L 34 70 C 35.105469 70 36 69.105469 36 68 L 36 42 C 36 40.894531 35.105469 40 34 40 Z M 42 40 C 40.894531 40 40 40.894531 40 42 L 40 68 C 40 69.105469 40.894531 70 42 70 L 48 70 C 49.105469 70 50 69.105469 50 68 L 50 53 C 50 50.242188 52.242188 48 55 48 C 57.757812 48 60 50.242188 60 53 L 60 68 C 60 69.105469 60.894531 70 62 70 L 68 70 C 69.105469 70 70 69.105469 70 68 L 70 52 C 70 45.382812 64.617188 40 58 40 C 54.925781 40 52.125 41.171875 50 43.082031 L 50 42 C 50 40.894531 49.105469 40 48 40 Z M 42 40 "/>
</g>
</svg>
