<?xml version="1.0" encoding="UTF-8"?>
<svg xmlns="http://www.w3.org/2000/svg" xmlns:xlink="http://www.w3.org/1999/xlink" viewBox="0 0 96 96" width="96px" height="96px">
<g id="surface32046634">
<path style=" stroke:none;fill-rule:nonzero;fill:rgb(100%,100%,100%);fill-opacity:1;" d="M 48 8 C 25.945312 8 8 25.945312 8 48 C 8 70.054688 25.945312 88 48 88 C 70.054688 88 88 70.054688 88 48 C 88 25.945312 70.054688 8 48 8 Z M 48 14 C 66.8125 14 82 29.1875 82 48 C 82 63.332031 71.914062 76.246094 58 80.503906 L 58 70.273438 C 58 66.453125 55.796875 63.175781 52.617188 61.546875 C 58.894531 60.347656 64.058594 56.796875 66.492188 52.015625 C 68.921875 47.234375 68.320312 41.804688 64.875 37.441406 C 65.761719 34.710938 66.753906 29.921875 64.398438 26.152344 C 59.859375 26.152344 56.929688 29.265625 55.53125 31.199219 C 53.140625 30.414062 50.582031 30.007812 48 30 C 45.414062 30.003906 42.855469 30.40625 40.460938 31.1875 C 39.058594 29.25 36.132812 26.152344 31.601562 26.152344 C 28.898438 30.476562 30.570312 35.128906 31.464844 37.027344 C 27.785156 41.375 27.003906 46.890625 29.378906 51.789062 C 31.753906 56.683594 36.980469 60.335938 43.363281 61.558594 C 40.75 62.90625 38.792969 65.347656 38.195312 68.3125 L 35.566406 68.3125 C 32.972656 68.3125 31.964844 67.257812 30.5625 65.480469 C 29.179688 63.703125 27.691406 62.507812 25.902344 62.011719 C 24.9375 61.910156 24.289062 62.644531 25.128906 63.292969 C 27.96875 65.226562 28.164062 68.386719 29.300781 70.457031 C 30.335938 72.320312 32.460938 74 34.859375 74 L 38 74 L 38 80.503906 C 24.085938 76.246094 14 63.332031 14 48 C 14 29.1875 29.1875 14 48 14 Z M 48 14 "/>
</g>
</svg>
